<svg xmlns="http://www.w3.org/2000/svg" width="256" height="256" viewBox="0 0 256 256"><path d="M132.947 6.305c2.71-.16 6.994.143 9.689.541 16.942 2.504 29.897 11.323 40.047 24.848 2.834-.476 5.619-1.152 8.5-1.613a86 86 0 0 1 20.203-.805c10.24.888 17.384 3.582 24.22 11.617 9.857 11.584 8.377 26.719 2.77 39.79-.927 2.16-2.514 4.745-3.189 6.932-3.844 12.61-4.286 26.815-2.27 39.816 1.68 10.834 2.952 20.124 1.959 31.141a100.54 100.54 0 0 1-36.494 69.124 100.9 100.9 0 0 1-73.102 23.074c-1.572-.053-4.232-.423-5.804-.625-44.609-6.085-79.96-40.681-87.008-85.148a106 106 0 0 1-1.158-15.157c-.063-7.256.832-15.684-1.194-22.68-.7-2.417-3.535-4.82-5.319-6.717a53 53 0 0 1-3.124-3.683c-8.13-10.554-11.297-23.886-4.63-36.04 3.53-6.438 8.454-10.737 14.17-15.126l-.104-.232c-3.317-7.489-5.144-16.138-1.986-23.964 2.96-7.335 8.501-12.189 15.683-15.348 11.926-5.244 25.73-5.466 38.518-4.51 1.733.13 6.526.642 8.04 1.231.727-.51 2.014-1.65 2.739-2.253a64 64 0 0 1 4.532-3.495c10.92-7.61 21.144-10.344 34.311-10.718"/><path fill="#e14f4e" d="M41.974 135.297c2.254 1.155 4.593 2.706 6.853 3.947a102 102 0 0 0 13.73 6.197c8.412 3.074 17.317 5.123 25.836 7.55 18.444 5.254 35.623 13.936 49.1 27.772 1.238 1.27 3.815 3.645 4.484 5.215.911 2.136 1.641 5.484 2.15 7.762 3.323 14.907 4.22 30.385 4.255 45.63-.303.084-.901.174-1.228.234a100 100 0 0 1-15.004 1.016 91.9 91.9 0 0 1-64.472-27.762 90.7 90.7 0 0 1-25.404-54.925c-.667-7.186-.399-15.344-.3-22.636"/><path fill="#e14f4e" d="m221.164 105.09.103.022c.286.571-.122 6.597-.134 7.688-.117 10.46 2.474 20.549 3.334 30.891 1.462 17.583-3.17 36.45-12.074 51.646a91.65 91.65 0 0 1-41.453 37.225c-3.522 1.59-8.256 3.43-12.009 4.407-.053-4.971-.057-9.975-.407-14.938-1.645-26.796-6.483-47.364-19.28-71.21 2.653-3.093 7.973-7.807 11.198-10.33a76.6 76.6 0 0 1 18.92-11.028c1.11-.436 2.25-.841 3.386-1.208 10.56-3.418 21.382-6.052 31.35-11.068a68.3 68.3 0 0 0 11.888-7.704c1.746-1.41 3.428-2.953 5.178-4.393"/><path fill="#e14f4e" d="M36.462 74.886c.934.918 3.215 4.397 4.524 5.907a99 99 0 0 0 15.343 14.299c4.008 3.029 8.586 6.127 12.975 8.508 23.34 12.66 46.28 28.497 60.126 51.739 1.573 2.64 3.203 5.4 4.49 8.236-2.505-1.813-4.79-3.47-7.346-5.21-8.374-5.108-16.863-9.466-26.155-12.683-9.193-3.181-18.699-5.263-28.022-8.066-10.208-3.017-19.584-7.559-28.294-13.732-11.482-8.137-25.787-23.38-17.653-38.427 2.236-4.135 6.165-7.95 10.012-10.571"/><path fill="#e14f4e" d="M84.26 60.045c.696.485 2.313 2.765 3.076 3.549 3.585 3.68 7.48 6.29 12.147 8.39 4.456 2.007 8.65 3.112 13.414 4.214 11.414 2.64 24.653 3.583 34.033 11.296 2.213 1.82 3.963 4.316 5.54 6.649-8.386 7.865-14.125 15.243-18.785 25.826-2.2 4.74-3.958 11.376-4.648 16.534a150 150 0 0 0-29.416-26.71c-4.451-3.14-9.015-5.9-13.4-8.968-4.365-13.728-5.602-26.776-1.962-40.78"/><path fill="#e14f4e" d="M227.75 47.719q.195.213.378.438c6.817 8.308 4.016 20.986-.099 29.895a64.4 64.4 0 0 1-33.766 32.09c-10.34 4.276-21.416 6.316-31.686 10.785-7.583 3.299-13.821 7.561-20.261 12.662l-2.44 2.028c4.43-21.254 19.012-36.345 37.694-46.363 20.846-11.179 40.555-18.188 50.18-41.535"/><path fill="#e14f4e" d="M130.236 16.925c15.873-1.481 35.738 7.048 43.806 21.167-4.26 5.122-12.304 7.03-18.426 9.566-10.477-9.683-19.594-9.599-32.455-4.86-9.786 3.867-15.735 9.825-20.828 18.753a29.7 29.7 0 0 1-5.516-3.555c-3.573-2.939-6.41-6.774-6.888-11.492-.459-4.53 2.914-9.465 5.753-12.763 9.453-10.98 20.45-15.597 34.554-16.816"/><path fill="#e14f4e" d="M69.833 31.572c3.393-.244 10.395.058 13.743.574-1.712 3.326-3.085 5.62-4.645 9.186a87.7 87.7 0 0 0-7.222 39.761c.29 4.676.91 7.907 1.476 12.409-3.01-1.317-9.254-5.88-11.892-7.865a71 71 0 0 1-4.81-3.99C48.672 74.56 38.85 61.93 38.105 51.112c-1.07-15.55 20.323-19.103 31.726-19.54"/><path fill="#e14f4e" d="m178.776 47.837.201.115c.62 1.022 1.2 3.173 1.545 4.371a89 89 0 0 1 2.75 12.633c.436 2.939.698 5.84 1.114 8.76-8.636 4.633-15.585 8.079-23.677 13.94-1.391-1.994-2.5-3.53-4.085-5.363-3.528-4.077-6.834-6.072-11.386-8.625.78-1.95 1.479-3.64 2.524-5.474 3.182-5.578 9.04-9.931 15.013-12.14 6.635-2.451 10.488-3.45 16.001-8.218"/><path fill="#e14f4e" d="M202.57 39.427c4.609-.498 11.642.66 16.093 1.819-2.766 10.818-9.302 17.074-18.05 23.366-2.001 1.327-3.894 2.466-5.964 3.685-.178-.795-.326-1.908-.424-2.73-1.014-8.47-3.326-16.233-6.237-24.227 5.482-1.037 9.046-1.505 14.583-1.913"/><path fill="#e14f4e" d="M136.555 50.175q.379-.034.757-.043c3.772-.1 6.551 1.062 9.258 3.625-6.575 6.164-7.974 8.267-11.285 16.609-3.03-1.044-7.077-1.84-10.261-2.522a477 477 0 0 1-12.586-2.558c4.229-8.955 14.617-14.183 24.117-15.111"/><path d="m35.699 30.223.474.376c-.135.627-.786.6-1.058 1.287l-.015.037-.114-.022-.337-.572c.216-.372.717-.79 1.05-1.106"/></svg>